<svg width="640" height="460" viewBox="0 0 640 460" fill="none" xmlns="http://www.w3.org/2000/svg" role="img" aria-labelledby="title">
  <title id="title">Сетка рабица оцинкованная</title>
  <rect width="640" height="460" rx="36" fill="#F8FBFF"/>
  <circle cx="512" cy="92" r="128" fill="#EAF3FF"/>
  <circle cx="112" cy="380" r="100" fill="#FEE2E2"/>
  <rect x="60" y="55" width="520" height="350" rx="28" fill="white" stroke="#D1D5DB" stroke-width="4"/>
  
        <g stroke="#15569a" stroke-width="7" fill="none" opacity=".72">
          <path d="M90 130 L155 70 L220 130 L155 190 Z"/>
          <path d="M220 130 L285 70 L350 130 L285 190 Z"/>
          <path d="M350 130 L415 70 L480 130 L415 190 Z"/>
          <path d="M90 260 L155 200 L220 260 L155 320 Z"/>
          <path d="M220 260 L285 200 L350 260 L285 320 Z"/>
          <path d="M350 260 L415 200 L480 260 L415 320 Z"/>
        </g>
        
  <path d="M72 405 C170 376 230 392 325 410 C420 428 505 410 570 385" stroke="#081B34" stroke-width="6" stroke-linecap="round" opacity=".16"/>
</svg>