<svg width="640" height="460" viewBox="0 0 640 460" fill="none" xmlns="http://www.w3.org/2000/svg" role="img" aria-labelledby="title">
  <title id="title">Профильная труба</title>
  <rect width="640" height="460" rx="36" fill="#F8FBFF"/>
  <circle cx="512" cy="92" r="128" fill="#EAF3FF"/>
  <circle cx="112" cy="380" r="100" fill="#FEE2E2"/>
  <rect x="60" y="55" width="520" height="350" rx="28" fill="white" stroke="#D1D5DB" stroke-width="4"/>
  
        <g opacity=".86">
          <path d="M110 115 L390 115 L390 185 L110 185Z" fill="#dbeafe" stroke="#15569a" stroke-width="8"/>
          <path d="M160 205 L470 205 L470 275 L160 275Z" fill="#eff6ff" stroke="#15569a" stroke-width="8"/>
          <path d="M230 295 L510 295 L510 365 L230 365Z" fill="#dbeafe" stroke="#15569a" stroke-width="8"/>
          <path d="M390 115 L430 145 L430 215 L390 185Z" fill="#b8d8f9"/>
          <path d="M470 205 L510 235 L510 305 L470 275Z" fill="#b8d8f9"/>
        </g>
        
  <path d="M72 405 C170 376 230 392 325 410 C420 428 505 410 570 385" stroke="#081B34" stroke-width="6" stroke-linecap="round" opacity=".16"/>
</svg>